<?xml version="1.0" encoding="UTF-8"?>
<!DOCTYPE svg PUBLIC "-//W3C//DTD SVG 1.1//EN" "http://www.w3.org/Graphics/SVG/1.1/DTD/svg11.dtd">
<!-- Creator: CorelDRAW -->
<svg xmlns="http://www.w3.org/2000/svg" xml:space="preserve" width="1000px" height="354px" style="shape-rendering:geometricPrecision; text-rendering:geometricPrecision; image-rendering:optimizeQuality; fill-rule:evenodd; clip-rule:evenodd"
viewBox="0 0 968.227 343.036"
 xmlns:xlink="http://www.w3.org/1999/xlink">
 <defs>
  <style type="text/css">
   <![CDATA[
    .fil1 {fill:#2F6969;fill-rule:nonzero}
    .fil0 {fill:#666666;fill-rule:nonzero}
   ]]>
  </style>
 </defs>
 <g id="Camada_x0020_1">
  <metadata id="CorelCorpID_0Corel-Layer"/>
  <path class="fil0" d="M55.0413 152.71l26.585 0 55.2667 143.286 -28.6392 0 -14.7163 -40.8021 -0.580408 -1.60386 -1.68303 0 -48.0659 0 7.6056 -21.3561 34.6143 0 -17.5984 -49.3279 -17.0159 49.3279 -7.6056 21.3561 -0.561009 1.63112 -14.0378 40.7749 -28.6094 0 55.0413 -143.286zm171.385 76.4152l0 67.104 24.1396 0 0 -68.032c0,-6.4946 -0.703621,-12.209 -2.11034,-17.1249 -1.37106,-4.80842 -3.42373,-8.86761 -6.14174,-12.1571 -5.38621,-6.51976 -14.8122,-9.782 -28.267,-9.782 -3.02683,0 -6.02115,0.169876 -8.97719,0.503859 -2.98855,0.336605 -5.96347,0.845708 -8.9169,1.51577 -5.67091,1.29189 -11.7193,2.67974 -18.1814,4.17139l-1.42297 0.325595 -0.952667 -1.1194 -3.20771 -3.77711 -18.9558 0 0 105.476 24.3698 0 0 -79.3875 0 -2.03064 2.00862 -0.344994c2.5948,-0.446186 4.9374,-0.85934 6.92715,-1.21797 2.01753,-0.361248 4.4068,-0.804288 7.17095,-1.32178 2.52087,-0.470828 4.98931,-0.829454 7.38959,-1.07011 2.44432,-0.243803 4.76805,-0.367015 6.95756,-0.367015 1.98398,0 3.75771,0.0629169 5.31228,0.183508 1.56244,0.120591 2.94189,0.314584 4.1242,0.577787 1.28088,0.281553 2.40605,0.692086 3.36658,1.22059 1.0376,0.568874 1.91582,1.29189 2.61944,2.15648 0.675832,0.829454 1.21797,1.78999 1.61172,2.86272l-0.00524307 0.00314584c0.380647,1.02345 0.640179,2.15385 0.774402,3.37444 0.120591,1.0785 0.210772,2.32635 0.271067,3.72206 0.0655384,1.45338 0.0959483,2.96443 0.0959483,4.53526zm126.944 61.9259l2.56439 4.94527 16.75 0 0 -67.5664c0,-6.57429 -0.703621,-12.3354 -2.10772,-17.2702 -1.37369,-4.83044 -3.42111,-8.87548 -6.13073,-12.1188 -2.65195,-3.17783 -6.28382,-5.57811 -10.8762,-7.18458 -4.74603,-1.65838 -10.5512,-2.49308 -17.4018,-2.49308 -1.29452,0 -2.82444,0.0571495 -4.57039,0.16673 -1.89694,0.117445 -3.96586,0.293088 -6.20203,0.509103 -2.22254,0.21916 -4.67735,0.48446 -7.3403,0.788034 -2.73688,0.311963 -5.32329,0.629693 -7.77024,0.941656 -2.46844,0.31773 -5.17806,0.697853 -8.09321,1.13041 -2.80767,0.415776 -5.52568,0.850951 -8.14774,1.29189 -2.70962,0.457196 -5.29341,0.919635 -7.72619,1.37945 -1.68041,0.317206 -3.30366,0.637558 -4.86085,0.95791l1.1194 19.1996 4.43669 -0.58303c2.88998,-0.369637 5.35056,-0.6816 7.39483,-0.928024l7.52958 -0.897614 0.00838892 0 7.29888 -0.840465 0.0110105 0c2.25242,-0.254289 4.52163,-0.498092 6.78506,-0.722496 2.45219,-0.243279 4.45294,-0.432554 6.02691,-0.56363 1.75433,-0.145233 3.36868,-0.262678 4.86348,-0.347616 1.45338,-0.0791704 2.60266,-0.123212 3.44313,-0.123212 1.86077,0 3.58784,0.0765489 5.16967,0.221782 1.58498,0.145233 2.96706,0.372258 4.12473,0.673211l0 0.00262154c1.19595,0.309341 2.25505,0.678978 3.15266,1.09475 0.990941,0.457196 1.84766,0.996184 2.55914,1.60386 0.728263,0.623926 1.32492,1.3223 1.78999,2.08569l0.00262154 -0.00262154c0.479217,0.785413 0.810579,1.64475 0.979931,2.55914 0.136844,0.741371 0.241181,1.46124 0.298331,2.14284 0.0602954,0.711485 0.0959483,1.45862 0.0959483,2.22778l0 3.70843 0 2.21153 -2.20629 0.194518 -34.296 3.01057 0 -0.00838892c-6.32787,0.596662 -11.8074,1.81201 -16.4108,3.6345l0 0.00838892c-4.50747,1.7816 -8.18863,4.15461 -11.0272,7.09965 -5.72544,5.93935 -8.5913,13.3835 -8.5913,22.314 0,2.71801 0.227549,5.25251 0.678978,7.60351 0.446186,2.33422 1.1194,4.49908 2.00076,6.48096 0.892371,1.99761 1.96773,3.84003 3.21296,5.51467 1.23474,1.65891 2.65771,3.16682 4.25633,4.51586 1.60333,1.35481 3.36343,2.54813 5.263,3.57211 1.90219,1.02083 3.96848,1.88279 6.18001,2.56963 4.4692,1.39046 9.29178,2.08832 14.462,2.08832l13.2084 0c1.52993,0 3.24861,-0.153098 5.15342,-0.45405 1.97874,-0.315109 4.19865,-0.79118 6.63721,-1.42874 4.73764,-1.23737 9.0097,-3.17521 12.7926,-5.79412l2.24404 -1.55719 1.26463 2.43593zm-40.8572 -37.5373c1.48064,-0.249046 3.12015,-0.45405 4.91014,-0.610294l0 0.00838892 28.483 -2.7783 2.69075 -0.262678 -0.0576738 2.70438c-0.081792,3.94646 -0.58303,7.39221 -1.4969,10.3152 -0.955288,3.06563 -2.37564,5.61061 -4.24532,7.61399 -3.72206,3.98788 -10.0305,5.98864 -18.9091,5.98864l-6.02691 0c-1.65576,0 -3.17992,-0.0519064 -4.56777,-0.153098 -1.40147,-0.101716 -2.66034,-0.263202 -3.76033,-0.473974l0 -0.00262154c-1.10576,-0.207626 -2.10772,-0.476071 -2.98331,-0.793801l-0.00314584 0.00576738c-0.952142,-0.339227 -1.77321,-0.74976 -2.44956,-1.21534 -0.705718,-0.489703 -1.3244,-1.0785 -1.83088,-1.75433l-0.00786461 0c-0.495471,-0.6622 -0.883982,-1.41196 -1.16082,-2.24404l-0.00786461 -0.00838892c-0.210772,-0.640704 -0.400047,-1.33856 -0.558387,-2.07993l0 -0.0110105c-0.150476,-0.728263 -0.273688,-1.46963 -0.358626,-2.21415l-0.0304098 -0.265824 0.0304098 -0.270543c0.0791704,-0.730885 0.191372,-1.44814 0.317206,-2.1376l0 -0.0110105c0.131601,-0.703621 0.284699,-1.35743 0.451953,-1.94885l0 -0.00786461c0.221782,-0.777548 0.561009,-1.50581 1.00719,-2.17902l0.0110105 -0.00786461c0.440418,-0.659579 0.985174,-1.25939 1.61172,-1.78212 0.616061,-0.514346 1.37421,-0.990417 2.25557,-1.42035 0.793277,-0.38589 1.74594,-0.758149 2.8407,-1.10839 1.08636,-0.347616 2.37302,-0.648568 3.84527,-0.894993zm385.012 40.2385l2.362 -0.544755 0 -20.1932 -1.77373 0.468207c-1.64475,0.440418 -3.35819,0.913868 -5.12615,1.41196 -1.82826,0.517491 -3.62926,0.914392 -5.38097,1.18546l-0.00786461 0.0110105c-1.73808,0.2653 -3.40485,0.402144 -4.99508,0.402144 -1.98398,0 -3.75771,-0.0629169 -5.31228,-0.183508 -1.56296,-0.120591 -2.94503,-0.314584 -4.12735,-0.577262 -1.27826,-0.282077 -2.40552,-0.69261 -3.36343,-1.21797 -1.0376,-0.574641 -1.91582,-1.29452 -2.61944,-2.15962 -0.665346,-0.818444 -1.20433,-1.77635 -1.60386,-2.85433 -0.383269,-1.02659 -0.643325,-2.15962 -0.777548,-3.38598 -0.117445,-1.07798 -0.210247,-2.32635 -0.270543,-3.71944 -0.0602954,-1.45338 -0.0959483,-2.9723 -0.0959483,-4.53788l0 -45.1864 0 -2.41391 2.41391 0 24.233 0 0 -19.7334 -24.233 0 -2.41391 0 0 -2.41391 0 -30.2625 -24.1396 0 0 30.2625 0 2.41391 -2.41391 0 -21.6848 0 0 19.7334 21.6848 0 2.41391 0 0 2.41391 0 46.1144c0,6.49722 0.703096,12.2122 2.11034,17.1249 1.37106,4.80895 3.42635,8.86761 6.14121,12.1576 5.38673,6.51924 14.8122,9.78148 28.2644,9.78148 1.28665,0 2.45219,-0.0382744 3.48979,-0.106434 1.05386,-0.0713058 2.00338,-0.178265 2.83545,-0.31773 1.79261,-0.298331 3.5417,-0.673211 5.22734,-1.10839l0 -0.00262154c0.758149,-0.19714 1.65314,-0.446186 2.72902,-0.752905 1.08374,-0.309341 2.04427,-0.59404 2.85695,-0.843086 1.02083,-0.311963 2.21415,-0.637558 3.56634,-0.965774l0.0110105 0zm26.1923 -103.229l0 105.706 24.3698 0 0 -105.706 -24.3698 0zm123.033 24.3777c0.465061,0.577787 0.908625,1.22898 1.32702,1.95147l20.8664 -7.65541c-1.45862,-3.21296 -3.10338,-6.00437 -4.918,-8.35274 -2.17588,-2.81081 -4.62544,-5.0171 -7.33506,-6.59893 -5.5671,-3.25438 -12.7758,-4.88235 -21.6109,-4.88235l-24.0987 0c-13.3316,0 -22.7298,3.16105 -28.1904,9.47214 -2.74213,3.16944 -4.81419,7.1547 -6.19889,11.9275 -1.41511,4.87763 -2.12659,10.6167 -2.12659,17.202l0 30.8204c0,6.59893 0.711485,12.3574 2.12659,17.2702 1.3847,4.81157 3.462,8.85083 6.21829,12.111 5.46014,6.4537 14.8531,9.68291 28.171,9.68291 1.95409,0 4.00414,-0.0571495 6.11972,-0.16673 2.2498,-0.114823 4.58454,-0.28732 6.98744,-0.509103 2.32373,-0.210772 4.85299,-0.487082 7.55422,-0.810055 2.52873,-0.304098 5.1099,-0.651714 7.72357,-1.03446 2.71749,-0.396901 5.29603,-0.80219 7.71518,-1.20433 2.52926,-0.421543 5.02811,-0.867729 7.48292,-1.32492l7.06137 -1.33017 0 -0.00262154 4.29408 -0.821065 -1.12464 -19.3008c-7.57624,0.623926 -15.067,1.59547 -22.4624,2.90938 -8.40465,1.49165 -16.9304,2.23879 -25.56,2.23879 -1.86653,0 -3.5742,-0.0550523 -5.09889,-0.153098 -1.52469,-0.0985698 -2.87373,-0.260056 -4.02354,-0.473974 -1.27774,-0.232268 -2.4029,-0.596138 -3.36605,-1.07535l0 -0.00838892c-1.05648,-0.527978 -1.94308,-1.20696 -2.65509,-2.0254 -0.675832,-0.785413 -1.23946,-1.7213 -1.66677,-2.80504l-0.00262154 0.00262154c-0.391133,-0.993563 -0.684221,-2.1376 -0.867729,-3.41586l0 -0.00786461c-0.161487,-1.14142 -0.284699,-2.44694 -0.363869,-3.90557 -0.0823163,-1.48379 -0.125834,-3.07664 -0.125834,-4.76805l0 -30.3553c0,-1.66363 0.054528,-3.1773 0.153098,-4.51848 0.101191,-1.35481 0.265824,-2.56439 0.48446,-3.61825 0.241181,-1.14928 0.610294,-2.18951 1.10839,-3.11176l-0.00262154 -0.00262154c0.520113,-0.96892 1.1907,-1.80676 1.99237,-2.50199 0.788558,-0.678454 1.71344,-1.23946 2.75366,-1.66101l0.0110105 0c0.990417,-0.399522 2.10195,-0.69261 3.32778,-0.876118 1.08951,-0.158341 2.35362,-0.28732 3.77973,-0.366491 1.42612,-0.0791704 2.95028,-0.123212 4.56252,-0.123212l18.7697 0c1.58236,0 3.04098,0.123212 4.36538,0.363869l0.00838892 0c1.37683,0.252192 2.60004,0.645947 3.6539,1.17183 1.16029,0.579884 2.22254,1.46124 3.16944,2.63255l0.0110105 0.0110105zm121.041 55.2148c0.289942,-2.21415 0.435175,-4.52687 0.435175,-6.92715 0,-2.57278 -0.19714,-4.91014 -0.591419,-7.00108 -0.38589,-2.0663 -0.963153,-3.91658 -1.7213,-5.53669 -0.774402,-1.65891 -1.68355,-3.18569 -2.707,-4.56777 -1.00982,-1.35796 -2.14861,-2.58379 -3.39908,-3.65967l-0.00838892 -0.00786461c-1.26725,-1.09213 -2.63569,-2.07468 -4.08593,-2.93402 -1.45076,-0.85934 -2.98069,-1.59599 -4.57353,-2.19528 -1.74647,-0.659579 -3.45676,-1.25624 -5.12091,-1.78736 -1.64475,-0.519589 -3.34194,-1.01506 -5.08526,-1.47226l0 0.00262154c-2.10719,-0.456672 -3.84789,-0.826308 -5.20008,-1.1 -1.55719,-0.314584 -3.24337,-0.643325 -5.03335,-0.974687 -1.71868,-0.317206 -3.35242,-0.681075 -4.89336,-1.0806 -1.54671,-0.402668 -3.00271,-0.840465 -4.34074,-1.31391 -1.40672,-0.418922 -2.68498,-0.911246 -3.80175,-1.46963l-0.00262154 0.00524307c-1.1907,-0.59404 -2.22254,-1.27512 -3.07926,-2.03641 -1.92945,-1.71606 -2.89575,-4.02039 -2.89575,-6.89936 0,-1.78212 0.599283,-3.31991 1.78212,-4.59293l0.00524307 0.00314584c1.04547,-1.13041 2.5345,-1.98975 4.43931,-2.57854 1.63951,-0.503335 3.27325,-0.881361 4.89074,-1.12726 1.6479,-0.24957 3.30366,-0.375404 4.96781,-0.375404l0.0765489 0 0.17774 0.0193994c2.84122,0.30672 5.67668,0.65119 8.48749,1.02345 2.7479,0.363869 5.48478,0.763916 8.20489,1.19595 2.73426,0.435175 5.54245,0.979931 8.41618,1.62326 2.21992,0.498092 4.46657,1.05386 6.73578,1.66415l6.69698 -18.4226c-2.95552,-0.815298 -6.22353,-1.65 -9.80612,-2.50147l0 -0.00262154c-2.20629,-0.520113 -4.44193,-1.03184 -6.68073,-1.52469l0 -0.00262154c-2.08307,-0.451429 -4.23169,-0.906003 -6.44269,-1.34642 -2.16801,-0.432554 -4.19603,-0.821065 -6.0568,-1.15243 -1.88856,-0.336605 -3.74146,-0.643325 -5.53459,-0.913868 -3.43159,-0.522734 -6.018,-0.785413 -7.75084,-0.785413 -2.07731,0 -4.18764,0.131077 -6.3221,0.38589 -2.157,0.259532 -4.35175,0.656433 -6.57167,1.16868l0 0.00262154c-2.16487,0.505957 -4.24741,1.18756 -6.22615,2.04165 -1.98713,0.856718 -3.85943,1.87492 -5.60275,3.04885l0.00262154 0.00576738c-1.74857,1.17917 -3.34718,2.53136 -4.77854,4.05342 -1.4366,1.52416 -2.73688,3.24861 -3.88931,5.15604 -1.11625,1.85028 -1.95672,3.91658 -2.50934,6.1884 -0.566776,2.31796 -0.851475,4.90437 -0.851475,7.74559 0,3.58784 0.38589,6.78716 1.15243,9.59273 0.752381,2.74527 1.87492,5.14555 3.36081,7.18144 1.5357,2.10772 3.30052,4.03455 5.29079,5.76686l0 0.00838892c1.96773,1.71606 4.15461,3.22973 6.53287,4.52949l0.00262154 -0.00262154c2.74265,1.48327 5.55032,2.75314 8.40255,3.79599l0 0.00262154c2.86272,1.04547 5.7527,1.86653 8.65422,2.45533 3.11439,0.629169 6.17424,1.31339 9.1628,2.04427 3.02735,0.741895 6.02954,1.54671 8.98296,2.40028l0.00262154 -0.00786461c1.2122,0.34447 2.362,0.790656 3.43474,1.32964l-0.00262154 0.00314584c1.11415,0.561009 1.88017,1.63636 2.2907,3.22397 0.28732,1.1 0.432554,2.52349 0.432554,4.25318l-0.00838892 0.19714c-0.188751,2.31534 -0.891847,4.26105 -2.09094,5.81876 -1.22059,1.58446 -2.90938,2.70123 -5.06062,3.35242 -1.79785,0.544755 -3.62926,0.950045 -5.4874,1.21534 -1.88017,0.268445 -3.80175,0.40529 -5.75585,0.40529l-0.0576738 -0.00838892c-3.05147,-0.0823163 -6.15222,-0.238036 -9.27238,-0.465061 -3.15581,-0.227549 -6.47572,-0.544755 -9.93248,-0.936413l-0.0110105 0c-3.3692,-0.383269 -7.02572,-0.897614 -10.9528,-1.52993 -3.063,-0.492325 -6.16376,-1.04285 -9.30016,-1.64213l0 19.4324c3.40433,0.684221 6.9434,1.37631 10.5727,2.06367 4.11896,0.777024 8.30922,1.54094 12.5598,2.27969 8.26833,1.43975 16.2105,2.16224 23.8114,2.16224 3.36343,0 6.41228,-0.246424 9.13291,-0.736128 2.68498,-0.481839 5.10728,-1.2101 7.25537,-2.17588 2.17325,-0.977309 4.11372,-2.09933 5.81352,-3.35557 1.68041,-1.24523 3.16367,-2.6467 4.43354,-4.20128 1.27564,-1.55719 2.3814,-3.25438 3.30628,-5.069 0.939035,-1.84189 1.69404,-3.80123 2.26344,-5.86228 0.588797,-2.13183 1.03184,-4.32711 1.32492,-6.5659zm-562.46 -118.293c5.30914,1.82564 11.6396,2.73951 18.9904,2.73951 1.17183,0 2.58012,-0.0482363 4.20966,-0.140514l0 117.804 0 2.41391 2.41391 0 59.457 0 0 21.3561 -89.2539 0 0 -144.173 4.18292 0zm104.758 36.6192c2.9723,0.602954 15.2705,3.21925 17.2681,3.61353 2.23565,0.44304 4.61128,0.907576 7.09703,1.38574l0 63.9529c0,1.4754 0.0246424,2.97807 0.0655384,4.49698 0.040896,1.44499 0.103813,2.6682 0.175119,3.66753 0.0901809,1.23946 0.320352,2.38927 0.684221,3.42897 0.380647,1.0979 0.914392,2.06682 1.59285,2.90152 0.703621,0.864583 1.57659,1.58708 2.61682,2.1591l0.0110105 0c0.965774,0.528502 2.08832,0.939035 3.35504,1.22111 1.18284,0.262678 2.56491,0.456672 4.12735,0.577262 1.55457,0.120591 3.3283,0.183508 5.31228,0.183508 0.539512,0 1.31654,-0.0466634 2.32373,-0.136844l0 0.0110105c0.777548,-0.0686843 1.84766,-0.191897 3.20247,-0.367015l3.73569 -0.492849 0.00838892 0 4.02616 -0.549998 0.0110105 0 8.22691 -1.15767 0.0162535 0 3.73045 -0.549998 0.0110105 0c0.963677,-0.145233 2.01439,-0.314584 3.14217,-0.503859l2.01701 -0.339227 0 -2.03641 0 -70.415c5.62372,-0.469255 18.1562,-2.17168 24.3142,-10.6455l0.0581981 121.149c0,22.0267 -12.0177,33.0403 -36.0535,33.0403 -2.67974,0 -6.6262,-0.378026 -11.8263,-1.13041 -2.707,-0.391658 -5.47377,-0.826833 -8.28458,-1.29189 -2.9508,-0.489703 -5.95561,-1.02083 -9.00183,-1.58446 -2.84384,-0.52588 -5.93359,-1.11415 -9.30855,-1.76849 -3.61248,-0.700475 -6.719,-1.31339 -9.19321,-1.81463 -4.96729,-1.00405 -9.5382,-1.95095 -13.6981,-2.83545l0 -18.8053 11.4126 2.04165 0.00262154 -0.00786461c2.80033,0.503335 5.42501,0.963153 7.84678,1.37106 2.41968,0.407911 5.06638,0.843086 7.95637,1.3029 2.89575,0.459818 5.53144,0.864583 7.8578,1.19857 2.33736,0.333984 4.82258,0.676357 7.5128,1.01296 5.00609,0.634936 9.31956,0.954764 12.9294,0.954764 1.73231,0 3.31991,-0.054528 4.74288,-0.153098 1.43713,-0.101191 2.71801,-0.262678 3.81801,-0.47345l0 -0.00262154c1.10839,-0.20815 2.11873,-0.476071 3.00533,-0.788558l0 -0.00262154c0.96892,-0.336605 1.80362,-0.727739 2.47945,-1.16606 0.785937,-0.503335 1.43451,-1.10262 1.93522,-1.7816l0.0110105 -0.0110105c0.525356,-0.716728 0.889225,-1.51892 1.07535,-2.39189l0.00314584 0c0.131077,-0.599283 0.229647,-1.25624 0.298331,-1.94308 0.0707815,-0.703621 0.106434,-1.38522 0.106434,-2.04165l0 -16.2221 0 -2.96968 -2.90361 0.61344 -3.59098 0.755003 0 0.00314584 -4.26419 0.864583 -0.00262154 -0.0110105c-1.60962,0.320352 -3.15581,0.610294 -4.62806,0.862486 -1.51105,0.254289 -3.09551,0.505957 -4.74341,0.741371l-4.73187 0.665346 0 0.00262154 -4.51586 0.605051c-1.34432,0.17774 -2.63884,0.317206 -3.86729,0.415776 -1.12516,0.0875593 -2.12974,0.136844 -2.99694,0.136844 -13.4632,0 -22.8918,-3.22659 -28.278,-9.67504 -2.70962,-3.24337 -4.75704,-7.2884 -6.13073,-12.1194 -1.4041,-4.9374 -2.10772,-10.6959 -2.10772,-17.2696l0 -67.7992 0.00471877 -2.08098zm213.627 -34.4051c4.85089,0.505432 9.57962,0.758149 14.183,0.758149 3.66753,0 7.04407,-0.278932 10.127,-0.83627l-0.145757 17.3672 -24.1643 0 0 -17.289zm24.3509 -4.99088c-3.02106,0.613964 -6.41071,0.921208 -10.1679,0.921208 -4.60447,0 -9.3332,-0.260056 -14.183,-0.780169l0 -1.07273 24.3588 0 -0.00786461 0.931694z"/>
  <path class="fil1" d="M54.9495 3.70895l0 144.173 90.0834 0 0 -21.3561 -60.0017 0 -2.41391 0 0 -2.41391 0 -120.403 -27.6677 0zm198.991 77.4685c0.454575,-2.27445 0.684221,-4.72925 0.684221,-7.35131 0,-2.80242 -0.229647,-5.41085 -0.684221,-7.81113 -0.448807,-2.37564 -1.12726,-4.58979 -2.02802,-6.6262 -0.902857,-2.04427 -1.98713,-3.90294 -3.22659,-5.55609 -1.24261,-1.65314 -2.66872,-3.13903 -4.26996,-4.44193 -1.6285,-1.3244 -3.40747,-2.49623 -5.32329,-3.49765 -1.92683,-1.00719 -4.01515,-1.86391 -6.25394,-2.5539 -2.24666,-0.692086 -4.60866,-1.22059 -7.07186,-1.5682 -2.46057,-0.347616 -5.05537,-0.522734 -7.76761,-0.522734l-24.5449 0c-6.91876,0 -12.7784,0.832076 -17.568,2.49361 -4.64222,1.6091 -8.30922,4.00938 -10.9832,7.18458 -2.72902,3.2376 -4.79269,7.28263 -6.18001,12.1188 -1.41773,4.9374 -2.12659,10.6959 -2.12659,17.2702l0 30.3553c0,6.51085 0.716728,12.2174 2.14547,17.1139 1.40147,4.80056 3.49765,8.8566 6.27858,12.1519 5.51204,6.53025 15.0723,9.79826 28.6665,9.79826 1.31391,0 2.86272,-0.0576738 4.62806,-0.16673l0.00838892 0c1.87754,-0.115348 3.96324,-0.287845 6.23192,-0.509103l0.00838892 0c2.20838,-0.213917 4.67997,-0.479217 7.3597,-0.782791 2.70385,-0.304098 5.32591,-0.621304 7.87929,-0.946899 2.5151,-0.320352 5.23049,-0.695232 8.16452,-1.13041 2.82707,-0.4163 5.5802,-0.848854 8.22166,-1.29189 2.74213,-0.457196 5.34794,-0.922257 7.80012,-1.37945l0.0110105 0c1.66939,-0.309341 3.30366,-0.632315 4.89913,-0.95791l-1.12516 -19.2022 -4.51009 0.585651c-2.86586,0.366491 -5.31543,0.675832 -7.44988,0.930646l-7.59774 0.897614 -0.00838892 0 -7.36232 0.83994 -0.0110105 0c-2.27969,0.254813 -4.56514,0.498092 -6.8506,0.722496 -2.47421,0.243803 -4.4886,0.432554 -6.07305,0.564155l-0.00838892 0c-1.7816,0.144709 -3.4101,0.2653 -4.89598,0.347616 -1.46439,0.0791704 -2.62521,0.123212 -3.47354,0.123212 -1.92106,0 -3.6539,-0.0602954 -5.18383,-0.183508 -1.52678,-0.117969 -2.8926,-0.311963 -4.0917,-0.574641l0 0.00524307c-1.25309,-0.273688 -2.36987,-0.670589 -3.33879,-1.1713 -1.05124,-0.544755 -1.93522,-1.22636 -2.63831,-2.03379 -0.6816,-0.777024 -1.23999,-1.68827 -1.65314,-2.71486 -0.391658,-0.971542 -0.659579,-2.05004 -0.80219,-3.22134 -0.117445,-0.987795 -0.210772,-2.14022 -0.273688,-3.44313 -0.0602954,-1.32755 -0.0954239,-2.71224 -0.0954239,-4.13836l0 -2.28493 2.2907 -0.120591 13.0904 -0.695232c2.78355,-0.147855 5.99703,-0.344994 9.61527,-0.580408 3.43212,-0.224404 7.29364,-0.494946 11.6097,-0.810055l0.0382744 0c5.22787,-0.295709 10.1239,-1.22321 14.6701,-2.77516 2.23879,-0.76077 4.3355,-1.68303 6.27596,-2.75314 1.92945,-1.06487 3.71367,-2.28546 5.34217,-3.64551 1.62011,-1.35481 3.05986,-2.85223 4.30823,-4.48073 1.26148,-1.64475 2.34785,-3.43474 3.24284,-5.35056 0.881361,-1.88593 1.54933,-3.96586 2.00076,-6.2293zm-24.0767 -9.61475c0.0875593,0.717253 0.134223,1.4754 0.134223,2.26344 0,0.664822 -0.0382744,1.34118 -0.106959,1.99814 -0.0707815,0.667443 -0.180362,1.28613 -0.319828,1.83927l-0.00314584 0c-0.196615,0.777024 -0.55262,1.50214 -1.06434,2.17011 -0.468207,0.612915 -1.06487,1.16868 -1.7816,1.65838 -0.667968,0.457196 -1.50581,0.873496 -2.49623,1.2316l-0.0110105 0c-0.906003,0.326119 -1.95986,0.621304 -3.14217,0.87035l0 0.00314584c-1.07011,0.227025 -2.4029,0.467682 -3.99313,0.714107 -1.66939,0.260056 -3.38021,0.503859 -5.09889,0.714631l-0.0382744 0 -27.8182 3.01319 -2.6682 0.28732 0 -2.68236 0 -4.40366c0,-1.46701 0.0246424,-2.96391 0.0655384,-4.47759 0.0435175,-1.456 0.103813,-2.69284 0.175119,-3.68641l0 -0.00838892c0.0928024,-1.22898 0.309341,-2.35938 0.643325,-3.37759l0 -0.0104861c0.35548,-1.0785 0.850951,-2.03903 1.47802,-2.86849l0.00524307 0.00524307c0.675832,-0.891847 1.53832,-1.63951 2.5754,-2.21677 0.95791,-0.536366 2.09094,-0.946899 3.38283,-1.2316 1.20171,-0.2653 2.58903,-0.459818 4.15461,-0.580408l0.0110105 0c1.5682,-0.117445 3.35557,-0.180362 5.35056,-0.180362l12.8581 0c1.74332,0 3.35295,0.054528 4.80895,0.153098 1.4366,0.0985698 2.7479,0.260056 3.91395,0.470828 1.2122,0.21916 2.26868,0.503859 3.15004,0.826308l0.0110105 0.0110105c1.00719,0.372258 1.86129,0.829454 2.55076,1.35481 0.686843,0.522734 1.27249,1.12254 1.74909,1.78474l0.0104861 0c0.481839,0.673211 0.845708,1.42874 1.0785,2.23879l0.0110105 0.0110105c0.186129,0.653811 0.333984,1.36005 0.424165,2.10457zm55.7213 -67.8538l0 144.173 90.0834 0 0 -21.3561 -60.0017 0 -2.41391 0 0 -2.41391 0 -120.403 -27.6677 0zm198.991 77.4685c0.454575,-2.27445 0.684221,-4.72925 0.684221,-7.35131 0,-2.80242 -0.229647,-5.41085 -0.684221,-7.81113 -0.448807,-2.37564 -1.12726,-4.58979 -2.02802,-6.6262 -0.902857,-2.04427 -1.98713,-3.90294 -3.22659,-5.55609 -1.24261,-1.65314 -2.66872,-3.13903 -4.26996,-4.44193 -1.6285,-1.3244 -3.40747,-2.49623 -5.32329,-3.49765 -1.92683,-1.00719 -4.01515,-1.86391 -6.25394,-2.5539 -2.24666,-0.692086 -4.60866,-1.22059 -7.07186,-1.5682 -2.46057,-0.347616 -5.05537,-0.522734 -7.76761,-0.522734l-24.5449 0c-6.91876,0 -12.7784,0.832076 -17.568,2.49361 -4.64222,1.6091 -8.30975,4.00938 -10.9837,7.18458 -2.7285,3.2376 -4.79217,7.28263 -6.17949,12.1188 -1.41773,4.9374 -2.12659,10.6959 -2.12659,17.2702l0 30.3553c0,6.51085 0.716728,12.2174 2.14547,17.1139 1.40147,4.80056 3.49765,8.8566 6.27858,12.1519 5.51204,6.53025 15.0723,9.79826 28.6665,9.79826 1.31391,0 2.86272,-0.0576738 4.62806,-0.16673l0.00838892 0c1.87754,-0.115348 3.96324,-0.287845 6.23192,-0.509103l0.00838892 0c2.20838,-0.213917 4.67997,-0.479217 7.3597,-0.782791 2.70385,-0.304098 5.32591,-0.621304 7.87929,-0.946899 2.5151,-0.320352 5.23049,-0.695232 8.16452,-1.13041 2.82707,-0.4163 5.5802,-0.848854 8.22166,-1.29189 2.74213,-0.457196 5.34794,-0.922257 7.80012,-1.37945l0.0110105 0c1.66939,-0.309341 3.30366,-0.632315 4.89913,-0.95791l-1.12516 -19.2022 -4.51009 0.585651c-2.86586,0.366491 -5.31543,0.675832 -7.44988,0.930646l-7.59774 0.897614 -0.00838892 0 -7.36232 0.83994 -0.0110105 0c-2.27969,0.254813 -4.56514,0.498092 -6.8506,0.722496 -2.47421,0.243803 -4.4886,0.432554 -6.07305,0.564155l-0.00838892 0c-1.7816,0.144709 -3.4101,0.2653 -4.89651,0.347616 -1.46387,0.0791704 -2.62468,0.123212 -3.47301,0.123212 -1.92106,0 -3.6539,-0.0602954 -5.18383,-0.183508 -1.52678,-0.117969 -2.8926,-0.311963 -4.0917,-0.574641l0 0.00524307c-1.25309,-0.273688 -2.36987,-0.670589 -3.33879,-1.1713 -1.05124,-0.544755 -1.93522,-1.22636 -2.63831,-2.03379 -0.6816,-0.777024 -1.23999,-1.68827 -1.65314,-2.71486 -0.391658,-0.971542 -0.659579,-2.05004 -0.80219,-3.22134 -0.117445,-0.987795 -0.210772,-2.14022 -0.273688,-3.44313 -0.0602954,-1.32755 -0.0954239,-2.71224 -0.0954239,-4.13836l0 -2.28493 2.2907 -0.120591 13.0904 -0.695232c2.78355,-0.147855 5.99703,-0.344994 9.61527,-0.580408 3.43212,-0.224404 7.29364,-0.494946 11.6097,-0.810055l0.0382744 0c5.22787,-0.295709 10.1239,-1.22321 14.6701,-2.77516 2.23879,-0.76077 4.33497,-1.68303 6.27596,-2.75314 1.92945,-1.06487 3.71367,-2.28546 5.34217,-3.64551 1.62011,-1.35481 3.05986,-2.85223 4.30823,-4.48073 1.26148,-1.64475 2.34785,-3.43474 3.24284,-5.35056 0.881361,-1.88593 1.54933,-3.96586 2.00076,-6.2293zm-24.0767 -9.61475c0.0875593,0.717253 0.134223,1.4754 0.134223,2.26344 0,0.664822 -0.0382744,1.34118 -0.106959,1.99814 -0.0707815,0.667443 -0.180362,1.28613 -0.319828,1.83927l-0.00314584 0c-0.196615,0.777024 -0.55262,1.50214 -1.06434,2.17011 -0.468207,0.612915 -1.06487,1.16868 -1.78212,1.65838 -0.667443,0.457196 -1.50529,0.873496 -2.4957,1.2316l-0.0110105 0c-0.906003,0.326119 -1.95986,0.621304 -3.14217,0.87035l0 0.00314584c-1.07011,0.227025 -2.4029,0.467682 -3.99313,0.714107 -1.66939,0.260056 -3.38021,0.503859 -5.09889,0.714631l-0.0382744 0 -27.8182 3.01319 -2.6682 0.28732 0 -2.68236 0 -4.40366c0,-1.46701 0.0246424,-2.96391 0.0655384,-4.47759 0.0435175,-1.456 0.103813,-2.69284 0.175119,-3.68641l0 -0.00838892c0.0928024,-1.22898 0.309341,-2.35938 0.643325,-3.37759l0 -0.0104861c0.35548,-1.0785 0.850951,-2.03903 1.4775,-2.86849l0.00576738 0.00524307c0.675832,-0.891847 1.53832,-1.63951 2.5754,-2.21677 0.95791,-0.536366 2.09094,-0.946899 3.38283,-1.2316 1.20171,-0.2653 2.58903,-0.459818 4.15461,-0.580408l0.0110105 0c1.5682,-0.117445 3.35557,-0.180362 5.35056,-0.180362l12.8581 0c1.74332,0 3.35295,0.054528 4.80895,0.153098 1.4366,0.0985698 2.7479,0.260056 3.91395,0.470828 1.2122,0.21916 2.26868,0.503859 3.15004,0.826308l0.0110105 0.0110105c1.00719,0.372258 1.86077,0.829454 2.55076,1.35481 0.686843,0.522734 1.27249,1.12254 1.74909,1.78474l0.0104861 0c0.481839,0.673211 0.845708,1.42874 1.0785,2.23879l0.0110105 0.0110105c0.186129,0.653811 0.333984,1.36005 0.424165,2.10457zm139.233 115.137c5.93673,-5.42448 8.91165,-13.7007 8.91165,-24.8181l0 -119.243 -18.9642 0 -3.48979 3.84527 -0.944278 1.0376 -1.37369 -0.311963 -18.2333 -4.17139c-5.89007,-1.34642 -11.9469,-2.01963 -18.1678,-2.01963 -6.90827,0 -12.7679,0.843086 -17.5601,2.52349 -4.64222,1.6285 -8.3066,4.05027 -10.9806,7.25799 -5.54508,6.65346 -8.31761,16.4161 -8.31761,29.2826l0 30.5881c0,6.52186 0.708864,12.2337 2.1182,17.1249 1.38207,4.80318 3.45414,8.86184 6.19941,12.1571 5.43287,6.51662 14.9491,9.782 28.5407,9.782 0.881361,0 1.8938,-0.0492849 3.03259,-0.136844 1.26411,-0.0985698 2.57225,-0.240657 3.91343,-0.413154 1.44814,-0.186129 2.94766,-0.410533 4.48073,-0.656957 1.45862,-0.232792 3.04623,-0.514346 4.72925,-0.832076l4.83044 -0.922257 0 -0.00262154 4.72401 -0.925403 0 -0.00262154 4.32711 -0.867729 0 0.00576738 3.60461 -0.750284 2.90414 -0.607148 0 2.96391 0 16.2215c0,0.640704 -0.0387987,1.31916 -0.106959,2.02016l0 0.0110105c-0.0655384,0.659579 -0.169876,1.31339 -0.300952,1.93469l0 0.0193994c-0.191897,0.881361 -0.561009,1.69142 -1.0979,2.41129 -0.498092,0.667443 -1.15767,1.26411 -1.95672,1.77321 -0.69261,0.443564 -1.52993,0.834697 -2.48522,1.16606l0 0.00262154c-0.900236,0.311963 -1.91582,0.580408 -3.02945,0.788558l0 0.00262154c-1.10891,0.210772 -2.40343,0.372258 -3.85943,0.47345 -1.4366,0.0985698 -3.03259,0.153098 -4.77592,0.153098 -3.82063,0 -8.26833,-0.399522 -13.3394,-1.19595 -2.76729,-0.435175 -5.29079,-0.854097 -7.61137,-1.25362 -2.50986,-0.429408 -5.14817,-0.908625 -7.89345,-1.42035l0 -0.00262154c-2.39766,-0.446186 -5.03073,-0.922257 -7.97839,-1.43713 -2.90099,-0.509103 -5.51467,-0.952142 -7.86042,-1.33279 -2.50147,-0.404765 -4.9783,-0.758149 -7.40584,-1.05071 -1.42874,-0.172497 -2.8192,-0.322973 -4.17139,-0.446186l0 19.068 5.31543 1.10314c1.8938,0.383269 4.63593,0.935889 8.62958,1.72392 3.31415,0.656957 6.42591,1.26463 9.37095,1.82564 3.47039,0.6622 6.59317,1.251 9.41761,1.76796 3.13379,0.575165 6.16638,1.10576 9.07052,1.58498 2.78879,0.457196 5.58073,0.892371 8.36952,1.29189 5.24674,0.752381 9.22624,1.13041 11.9327,1.13041 12.3191,0 21.4851,-2.74265 27.4816,-8.22219zm-24.676 -121.563c2.00862,0.361248 4.32973,0.769159 6.95179,1.21534l2.00915 0.341848 0 2.03379 0 53.299 0 2.03064 -2.00915 0.344994c-2.62206,0.446186 -4.94317,0.854097 -6.95179,1.21534 -2.03641,0.363869 -4.47234,0.821065 -7.15417,1.3244 -2.49361,0.470828 -4.97568,0.832076 -7.42524,1.07011 -2.4826,0.243803 -4.87449,0.367015 -7.15994,0.367015 -2.00338,0 -3.79074,-0.0629169 -5.35895,-0.183508 -1.57083,-0.120591 -2.96391,-0.314584 -4.15199,-0.574641l0 0.00524307c-1.26463,-0.27631 -2.39766,-0.689464 -3.38545,-1.22583 -1.06487,-0.58303 -1.95147,-1.30028 -2.6467,-2.15123 -0.675832,-0.824211 -1.21534,-1.80362 -1.60123,-2.90938 -0.363869,-1.04023 -0.599283,-2.18426 -0.692086,-3.42425l0 -0.00786461c-0.0713058,-0.993563 -0.131601,-2.23093 -0.175643,-3.68693 -0.040896,-1.51368 -0.0655384,-3.01057 -0.0655384,-4.47759l0 -28.732c0,-1.46701 0.0246424,-2.96443 0.0655384,-4.47759 0.0440418,-1.456 0.104337,-2.69337 0.175643,-3.68693l0 -0.00786461c0.0928024,-1.23999 0.328216,-2.38403 0.692086,-3.42425 0.38589,-1.10576 0.925403,-2.08569 1.60123,-2.90938 0.695232,-0.850951 1.58184,-1.5682 2.6467,-2.15123 0.987795,-0.536366 2.12082,-0.949521 3.38545,-1.22583l0 0.00524307c1.18808,-0.260056 2.58117,-0.45405 4.15199,-0.574641 1.5682,-0.120591 3.35557,-0.183508 5.35895,-0.183508 2.28546,0 4.67735,0.123212 7.15994,0.367015 2.44118,0.240657 4.92325,0.599283 7.42524,1.07011 2.68183,0.503335 5.11776,0.960531 7.15417,1.3244zm65.2511 -41.9241l24.4217 0 0.193994 -23.2121 -24.6157 0 0 23.2121zm0 19.197l0 105.706 24.6267 0 0 -105.706 -24.6267 0zm131.441 79.5925c0.290466,-2.21415 0.438321,-4.52687 0.438321,-6.92715 0,-2.57015 -0.199761,-4.90752 -0.596662,-7.00108 -0.38589,-2.05004 -0.96892,-3.8977 -1.7407,-5.52568 -0.782791,-1.65891 -1.6998,-3.18884 -2.73164,-4.57091l0.00576738 -0.00262154c-1.01821,-1.35481 -2.16539,-2.58117 -3.43788,-3.66491 -1.29976,-1.10839 -2.67921,-2.09356 -4.12473,-2.94241 -1.456,-0.856194 -2.99956,-1.59285 -4.61705,-2.19475 -1.60386,-0.599283 -3.33355,-1.19595 -5.17544,-1.77635l0 -0.00262154c-1.7601,-0.553144 -3.47616,-1.04809 -5.13716,-1.48064 -3.61562,-0.777548 -7.06399,-1.46963 -10.321,-2.07206 -1.70243,-0.311963 -3.3498,-0.675832 -4.92377,-1.08112 -1.54933,-0.396901 -3.00533,-0.834697 -4.35175,-1.30553 -1.45076,-0.424165 -2.74213,-0.919635 -3.8589,-1.46963 -1.21797,-0.601905 -2.25557,-1.28088 -3.1039,-2.02802l0 -0.0110105c-1.9457,-1.71868 -2.92301,-4.02039 -2.92301,-6.89989 0,-1.77583 0.602429,-3.31153 1.79523,-4.58717l-0.00524307 -0.00524307c1.04809,-1.12464 2.55076,-1.9845 4.48335,-2.5754 1.66101,-0.503859 3.30576,-0.883982 4.92325,-1.12779 1.66153,-0.249046 3.33093,-0.37488 5.00871,-0.37488l0.0739273 0 0.180886 0.0193994c2.86534,0.306196 5.72019,0.65119 8.56089,1.02345 2.72325,0.358626 5.48216,0.758149 8.26571,1.19595l0.0110105 0c2.72011,0.429932 5.5477,0.974687 8.46494,1.62011 2.2498,0.501238 4.53264,1.05963 6.83697,1.67516l6.76042 -18.4278c-2.99432,-0.821065 -6.29798,-1.65838 -9.89683,-2.50409 -2.30171,-0.538988 -4.55413,-1.05124 -6.74102,-1.52731 -2.15962,-0.468207 -4.32973,-0.919635 -6.50036,-1.34904 -2.1376,-0.421543 -4.18188,-0.813201 -6.11447,-1.15243 -1.90166,-0.333984 -3.77396,-0.640704 -5.58597,-0.914392 -3.462,-0.522734 -6.07567,-0.785413 -7.82476,-0.785413 -2.09618,0 -4.22592,0.12898 -6.37715,0.38589 -2.18374,0.260056 -4.40366,0.654336 -6.64507,1.17183 -2.18689,0.505957 -4.28883,1.18756 -6.2812,2.04165 -1.99814,0.850951 -3.88669,1.8744 -5.65466,3.05409 -1.75695,1.17445 -3.3692,2.53188 -4.82782,4.06181 -1.45338,1.52993 -2.76729,3.25438 -3.92497,5.15656 -1.1194,1.83612 -1.95934,3.90242 -2.52349,6.18788 -0.572019,2.31849 -0.85934,4.90175 -0.85934,7.7372 0,3.57997 0.389036,6.77929 1.16344,9.58224 0.758149,2.74213 1.8938,5.13979 3.39384,7.18458 1.5682,2.13446 3.3498,4.06391 5.32854,5.7721 1.98188,1.71344 4.19289,3.22921 6.60994,4.53788l-0.00262154 0.00524307c2.75838,1.47802 5.58859,2.74527 8.47071,3.79074 2.88736,1.04547 5.80775,1.86916 8.7444,2.45795 3.14217,0.629169 6.2293,1.31339 9.24249,2.04427 3.18045,0.771781 6.19941,1.57083 9.06475,2.39189 0.599283,0.169876 1.19857,0.369637 1.78422,0.59404 0.536891,0.202383 1.09213,0.448807 1.65891,0.730885l0 -0.00262154c1.12202,0.557863 1.89642,1.63374 2.31272,3.22659l0.00262154 0c0.289942,1.10052 0.435175,2.52611 0.435175,4.26157l-0.00838892 0.19714c-0.191372,2.32897 -0.897614,4.27782 -2.10457,5.82925l-0.00838892 0c-1.2316,1.58236 -2.93088,2.70176 -5.09312,3.35032 -1.7816,0.533745 -3.62926,0.93851 -5.53144,1.20696 -1.90219,0.267921 -3.83426,0.404765 -5.79674,0.404765l-0.0576738 -0.00786461c-3.07873,-0.0823163 -6.20728,-0.238036 -9.35731,-0.465585 -3.18045,-0.229647 -6.52501,-0.544755 -10.0143,-0.935889 -3.42425,-0.38589 -7.11328,-0.897614 -11.0629,-1.52993 -3.07926,-0.489703 -6.21566,-1.04285 -9.40398,-1.6479l0 19.4382c3.3692,0.673211 6.9434,1.36267 10.6822,2.06315 4.15199,0.777548 8.38053,1.54094 12.672,2.28021 8.34226,1.43975 16.3558,2.16224 24.0248,2.16224 6.68073,0 12.2012,-0.971542 16.5503,-2.91253 2.17011,-0.968396 4.13259,-2.09356 5.86752,-3.36605 1.71344,-1.25624 3.21086,-2.65771 4.47496,-4.19026l0 -0.0110105c1.30028,-1.57397 2.41706,-3.26539 3.34194,-5.069 0.93851,-1.82249 1.6998,-3.77659 2.27445,-5.85127 0.59404,-2.1376 1.04285,-4.33288 1.33803,-6.5659z"/>
 </g>
</svg>
